HIERARCHY
ROOT pelvis
{
  OFFSET 0 100 0
  CHANNELS 6 Xposition Yposition Zposition Zrotation Xrotation Yrotation
  JOINT pelvis_right_femur
  {
    OFFSET -10.78128 -3.44521 -0.5502486
    CHANNELS 3 Zrotation Xrotation Yrotation
    JOINT right_femur_tibia
    {
      OFFSET -0.8047443 -44.0398 -0.1307829
      CHANNELS 3 Zrotation Xrotation Yrotation
      JOINT right_tibia_foot
      {
        OFFSET 3.006224 -47.83518 -5
        CHANNELS 3 Zrotation Xrotation Yrotation
        End Site
        {
          OFFSET 0 -5 15
        }
      }
    }
  }
  JOINT pelvis_left_femur
  {
    OFFSET 10.78128 -3.44521 -0.5502486
    CHANNELS 3 Zrotation Xrotation Yrotation
    JOINT left_femur_tibia
    {
      OFFSET 0.8047443 -44.0398 -0.1307829
      CHANNELS 3 Zrotation Xrotation Yrotation
      JOINT left_tibia_foot
      {
        OFFSET -4.370144 -48.10324 -4.275266
        CHANNELS 3 Zrotation Xrotation Yrotation
        End Site
        {
          OFFSET 0 -5 15
        }
      }
    }
  }
  JOINT pelvis_spine1
  {
    OFFSET 0 6.468898 -3.129235
    CHANNELS 3 Zrotation Xrotation Yrotation
    JOINT spine1
    {
      OFFSET 0 23.15396 4.99043
      CHANNELS 3 Zrotation Xrotation Yrotation
      JOINT spine2
      {
        OFFSET 0 20.79997 -5.064912
        CHANNELS 3 Zrotation Xrotation Yrotation
        JOINT neck
        {
          OFFSET 0 14.38658 9.616178
          CHANNELS 3 Zrotation Xrotation Yrotation
          End Site
          {
            OFFSET 0 20 0
          }
        }
      }
      JOINT right_manubrium
      {
        OFFSET -5.722621 16.35077 3.967754
        CHANNELS 3 Zrotation Xrotation Yrotation
        JOINT right_clavicle
        {
          OFFSET -13.16364 1.694482 -4.693211
          CHANNELS 3 Zrotation Xrotation Yrotation
          JOINT right_humerus
          {
            OFFSET -28.5034 -0.3100689 -2.792744
            CHANNELS 3 Zrotation Xrotation Yrotation
            JOINT right_radius
            {
              OFFSET -25.15693 0.02248979 -1.271978
              CHANNELS 3 Zrotation Xrotation Yrotation
              End Site
              {
                OFFSET -15 0 0
              }
            }
          }
        }
      }
      JOINT left_manubrium
      {
        OFFSET 5.722621 16.35077 3.967754
        CHANNELS 3 Zrotation Xrotation Yrotation
        JOINT left_clavicle
        {
          OFFSET 13.16364 1.694482 -4.693211
          CHANNELS 3 Zrotation Xrotation Yrotation
          JOINT left_humerus
          {
            OFFSET 29.39168 -1.063119 -2.237045
            CHANNELS 3 Zrotation Xrotation Yrotation
            JOINT left_radius
            {
              OFFSET 24.59957 -0.9528479 0.9047498
              CHANNELS 3 Zrotation Xrotation Yrotation
              End Site
              {
                OFFSET 15 -0 -0
              }
            }
          }
        }
      }
    }
  }
}
MOTION
Frames: 9
Frame Time: 0.0416666666667
0 103.5113 0 2.161624 -2.914046 0.2515362 1.949735 -10.8709 8.641969 -0 37.70247 -0 -4.855084 -16.69535 -4.082705 -7.538401 10.63551 -22.99916 -0 4.628195 -0 8.848916 -15.15971 26.11944 -2.393391 -3.399719 4.476273 3.289416 9.70535 -8.400943 1.475459 21.19239 6.216687 2.81277 -25.85624 9.280373 5.907798 -18.56576 10.91993 86.73338 33.05982 -21.77746 -0 0 14.87334 -6.780702 8.47855 3.009863 6.772633 -21.15709 -0.9385121 -95.2317 25.96289 22.64948 0 0 -14.18746 8.398991 17.2565 4.367375
0.303941 103.4007 1.422242 1.76714 -1.687399 0.3451671 2.48324 -13.62372 9.218101 -0 38.29955 -0 -4.840077 -17.04035 -4.167193 -7.505808 11.15979 -23.4066 -0 4.537516 -0 7.981595 -16.57832 26.27102 -2.459986 -3.483016 4.446759 3.300982 9.689624 -8.4524 1.471655 21.17454 6.247308 2.8213 -25.82994 9.308892 5.941802 -18.59008 10.92805 86.69741 32.97276 -21.76591 -0 0 15.01146 -6.782947 8.526314 2.96088 6.849426 -21.21101 -0.8692862 -95.27838 25.84748 22.66305 0 0 -13.97779 8.463936 17.43932 4.258941
0.5358189 103.3264 2.833911 1.188083 -0.4691311 0.4432378 3.218656 -17.05755 9.35809 -0 38.11882 -0 -5.100996 -16.79001 -4.082038 -7.283979 11.67149 -23.65026 -0 4.559372 -0 6.555006 -18.36963 26.10287 -2.18382 -3.080973 4.479751 3.300629 9.63437 -8.348645 1.544244 21.12738 6.209582 2.804024 -26.30759 9.398213 5.731232 -18.43476 10.86426 86.97091 33.43277 -21.97617 -0 0 14.33622 -6.576183 8.281837 2.999695 6.708462 -20.96312 -0.9392757 -94.7702 26.38789 22.07783 0 0 -15.34787 8.576054 16.62251 4.208468
0.7324758 103.1802 4.401828 0.5790448 0.593146 0.5378576 4.161137 -20.88749 9.091833 -0 36.17966 -0 -5.364745 -15.66495 -3.740976 -6.979845 12.00374 -23.30602 -0 4.655271 -0 5.948176 -19.80531 25.79469 -1.939083 -2.76423 4.579893 3.253958 9.672986 -8.203355 1.527066 21.05567 6.243612 2.865835 -26.45885 9.346411 5.605144 -18.38084 10.8973 87.03506 33.81522 -21.86952 -0 0 13.89267 -6.726507 8.251916 3.300875 6.571727 -20.88469 -1.037216 -94.31183 26.28475 21.75516 0 0 -16.24992 8.825677 15.80023 4.02055
0.9237942 102.8771 6.287904 -0.04955464 1.560925 0.6359655 5.209175 -25.09025 8.479155 -0 32.73149 -0 -5.656336 -13.66193 -3.202604 -6.611185 12.25486 -22.46196 -0 4.904681 -0 5.555722 -21.19092 25.13111 -1.725341 -2.476473 4.664469 3.215767 9.700562 -8.09351 1.502552 21.01097 6.264927 2.907511 -26.57734 9.284695 5.49061 -18.31062 10.92497 87.1469 34.14173 -21.85877 -0 0 13.47181 -6.817612 8.214683 3.531922 6.438292 -20.83025 -1.144436 -93.93347 26.34663 21.48633 0 0 -17.14869 8.897254 15.10228 4.047955
1.133383 102.3731 8.627042 -0.5899089 2.42587 0.7720479 6.221224 -29.12135 7.76395 -0 28.26713 -0 -5.881146 -11.06521 -2.593284 -6.275963 12.50359 -21.23234 -0 5.40053 -0 5.420105 -22.3684 24.15882 -1.534962 -2.223856 4.765277 3.161489 9.75493 -7.976717 1.454782 20.97872 6.28896 2.957502 -26.5829 9.174309 5.405187 -18.26371 10.97306 87.2074 34.42941 -21.77792 -0 0 13.12786 -7.006566 8.235433 3.820229 6.296905 -20.81794 -1.268294 -93.61283 26.30601 21.32816 0 0 -17.87892 8.920829 14.45822 4.139997
1.369223 101.6817 11.52726 -1.031398 3.161806 0.9942377 7.088094 -32.56847 7.008917 -0 23.44539 -0 -6.110739 -8.130118 -1.997102 -5.976383 12.88379 -19.80459 -0 6.348825 -0 5.084959 -23.30202 22.76211 -1.366993 -1.997277 4.869263 3.099377 9.81673 -7.86642 1.397959 20.96093 6.306929 3.003724 -26.53116 9.040885 5.335549 -18.22542 11.02516 87.25286 34.68524 -21.6858 -0 0 12.8336 -7.233318 8.281018 4.115631 6.154131 -20.82492 -1.397239 -93.3435 26.27758 21.2362 0 0 -18.51917 8.867848 13.88254 4.3267
1.624816 100.8861 15.04712 -1.398051 3.736573 1.341346 7.75613 -34.96974 6.326698 -0 19.16914 -0 -6.41635 -5.33378 -1.499961 -5.697482 13.47227 -18.39811 -0 8.002129 -0 4.272848 -23.73067 20.95069 -1.220045 -1.795003 4.979879 3.026304 9.888432 -7.755525 1.333696 20.95463 6.319441 3.048936 -26.42252 8.884827 5.280866 -18.20105 11.082 87.26796 34.91568 -21.55634 -0 0 12.59381 -7.51768 8.355062 4.434095 6.009089 -20.84512 -1.528256 -93.1171 26.22976 21.20821 0 0 -19.05006 8.76453 13.36079 4.574039
1.88829 100.1157 19.20515 -1.755127 4.119987 1.817245 8.254608 -36.08002 5.765856 -0 16.09657 -0 -6.869528 -3.073916 -1.136474 -5.392082 14.20296 -17.11888 -0 10.67486 -0 2.871055 -23.32956 18.78537 -1.093077 -1.61368 5.095144 2.943632 9.965167 -7.645289 1.26587 20.95886 6.325299 3.091402 -26.27242 8.713187 5.236835 -18.18908 11.13976 87.25676 35.12476 -21.39599 -0 0 12.40333 -7.850883 8.449841 4.768323 5.863315 -20.87065 -1.656991 -92.92831 26.18233 21.23173 0 0 -19.48885 8.611463 12.8898 4.879413
